<svg width="14" height="17" viewBox="0 0 14 17" fill="none" xmlns="http://www.w3.org/2000/svg">
<path d="M13.0729 5.68253C12.552 6.00144 12.1205 6.44728 11.8189 6.97834C11.5172 7.50941 11.3552 8.10832 11.3481 8.71903C11.3501 9.40639 11.5538 10.078 11.9338 10.6508C12.3138 11.2236 12.8535 11.6723 13.486 11.9413C13.2366 12.7459 12.8675 13.5084 12.3912 14.2031C11.7096 15.1843 10.9969 16.1654 9.91248 16.1654C8.82808 16.1654 8.54918 15.5354 7.29948 15.5354C6.08078 15.5354 5.64698 16.1861 4.65548 16.1861C3.66398 16.1861 2.97208 15.2772 2.17678 14.1618C1.12625 12.5993 0.548887 10.7668 0.513977 8.88423C0.513977 5.78583 2.52798 4.14373 4.51088 4.14373C5.56438 4.14373 6.44228 4.83563 7.10328 4.83563C7.73328 4.83563 8.71448 4.10233 9.91248 4.10233C10.5284 4.08644 11.1389 4.22225 11.69 4.49781C12.2411 4.77337 12.716 5.18023 13.0729 5.68253ZM9.34448 2.79073C9.87258 2.16949 10.1715 1.38586 10.1914 0.570732C10.1923 0.463274 10.1819 0.35602 10.1604 0.250732C9.25323 0.339346 8.41438 0.771707 7.81588 1.45913C7.28268 2.05562 6.97248 2.81832 6.93798 3.61763C6.93838 3.71484 6.94877 3.81175 6.96898 3.90683C7.04049 3.92035 7.1131 3.92728 7.18588 3.92753C7.60395 3.89427 8.01089 3.77634 8.38197 3.58091C8.75305 3.38549 9.08052 3.11665 9.34448 2.79073Z" fill="black" fill-opacity="0.8"/>
</svg>
